<svg xmlns="http://www.w3.org/2000/svg" xmlns:xlink="http://www.w3.org/1999/xlink" width="85" height="85" viewBox="0 0 85 85">
  <defs>
    <filter id="Ellipse_13" x="0" y="0" width="85" height="85" filterUnits="userSpaceOnUse">
      <feOffset dy="10" input="SourceAlpha"/>
      <feGaussianBlur stdDeviation="7.5" result="blur"/>
      <feFlood flood-opacity="0.161"/>
      <feComposite operator="in" in2="blur"/>
      <feComposite in="SourceGraphic"/>
    </filter>
  </defs>
  <g id="Instagram_Button_fixed" data-name="Instagram Button fixed" transform="translate(22.5 12.5)">
    <g transform="matrix(1, 0, 0, 1, -22.5, -12.5)" filter="url(#Ellipse_13)">
      <g id="Ellipse_13-2" data-name="Ellipse 13" transform="translate(22.5 12.5)" fill="#fff" stroke="#fafafa" stroke-width="1">
        <circle cx="20" cy="20" r="20" stroke="none"/>
        <circle cx="20" cy="20" r="19.5" fill="none"/>
      </g>
    </g>
    <g id="Group_4" data-name="Group 4" transform="translate(-86.692 -87.283)">
      <g id="Group_3" data-name="Group 3" transform="translate(97.011 97.011)">
        <path id="Path_9" data-name="Path 9" d="M112.788,97.011H101.234a4.228,4.228,0,0,0-4.223,4.223v11.554a4.228,4.228,0,0,0,4.223,4.223h11.554a4.228,4.228,0,0,0,4.223-4.223V101.234A4.228,4.228,0,0,0,112.788,97.011Zm3.206,15.777a3.21,3.21,0,0,1-3.206,3.206H101.234a3.21,3.21,0,0,1-3.206-3.206V101.234a3.21,3.21,0,0,1,3.206-3.206h11.554a3.21,3.21,0,0,1,3.206,3.206v11.554Z" transform="translate(-97.011 -97.011)" fill="#aa8a01"/>
      </g>
    </g>
    <g id="Group_6" data-name="Group 6" transform="translate(-157 -157)">
      <g id="Group_5" data-name="Group 5" transform="translate(172.463 172.464)">
        <path id="Path_10" data-name="Path 10" d="M182.455,177.178a5.006,5.006,0,1,0-2.353,4.531.479.479,0,0,0,.086-.746l-.007-.007a.482.482,0,0,0-.6-.064,4.007,4.007,0,0,1-2.164.6,4.036,4.036,0,1,1,3.606-2.147.482.482,0,0,0,.081.568l.007.007a.478.478,0,0,0,.759-.109A4.97,4.97,0,0,0,182.455,177.178Z" transform="translate(-172.463 -172.464)" fill="#aa8a01"/>
      </g>
    </g>
    <g id="Group_8" data-name="Group 8" transform="translate(-295 -124)">
      <g id="Group_7" data-name="Group 7" transform="translate(320.674 137.431)">
        <circle id="Ellipse_2" data-name="Ellipse 2" cx="1" cy="1" r="1" transform="translate(0)" fill="#aa8a01"/>
      </g>
    </g>
  </g>
</svg>
