<svg xmlns="http://www.w3.org/2000/svg" width="13.665" height="16" viewBox="0 0 13.665 16">
  <g id="paypal" transform="translate(-1.167)">
    <path id="Path_32" data-name="Path 32" d="M5.444,9.488a.714.714,0,0,1,.707-.6h1.47c2.889,0,5.15-1.164,5.811-4.531.02-.1.051-.292.051-.292a3.181,3.181,0,0,0-.68-2.858C12.057.362,10.707,0,8.98,0H3.968a.717.717,0,0,0-.709.6L1.172,13.731a.428.428,0,0,0,.425.493H4.691l.777-4.89Z" fill="#0d47a1"/>
    <path id="Path_33" data-name="Path 33" d="M7.621,9.772H6.3L5.319,16H7.457a.626.626,0,0,0,.62-.526l.025-.132.492-3.091.032-.17a.626.626,0,0,1,.619-.526h.391c2.527,0,4.505-1.018,5.083-3.963A3.427,3.427,0,0,0,14.266,4.7c-.718,3.315-3.009,5.069-6.645,5.069Z" fill="#0d47a1"/>
  </g>
</svg>
