<svg xmlns="http://www.w3.org/2000/svg" width="30" height="10" viewBox="0 0 30 10">
  <path id="visa" d="M17.459,16.031a4.775,4.775,0,0,1-2.289-.51l-.3-.15-.339,2.172a7.552,7.552,0,0,0,2.719.51c2.551,0,4.219-1.306,4.239-3.316.02-1.1-.638-1.943-2.026-2.634-.842-.448-1.368-.749-1.368-1.2,0-.4.449-.832,1.386-.832a4.133,4.133,0,0,1,1.819.371l.225.11.339-2.1-.059.014a5.786,5.786,0,0,0-2.175-.41c-2.4,0-4.094,1.316-4.106,3.2-.015,1.386,1.2,2.167,2.126,2.632.946.476,1.262.775,1.26,1.2-.006.65-.756.942-1.452.942Zm10.576-7.8H26.16a1.2,1.2,0,0,0-1.276.8l-3.606,8.883h2.551l.51-1.454,3.112,0c.076.339.3,1.451.3,1.451H30L28.035,8.231Zm-3,6.245.968-2.708c-.013.028.2-.56.322-.924l.166.836.561,2.8H25.038ZM10.555,17.84h2.43L14.5,8.15H12.075v0Zm-4.4-3L5.9,13.49v0l-.853-4.45a1.025,1.025,0,0,0-1.1-.821H.031L0,8.428a9.713,9.713,0,0,1,2.385.961.537.537,0,0,1,.225.323L4.71,17.9H7.278L11.1,8.231H8.53L6.154,14.836Z" transform="translate(0 -8.053)" fill="#191e6e"/>
</svg>
